<?xml version="1.0" encoding="UTF-8" standalone="no"?>
<!-- Created with Inkscape (http://www.inkscape.org/) -->

<svg
   width="1610.0626"
   height="1610.0629"
   viewBox="0 0 425.99572 425.9958"
   version="1.1"
   id="svg1"
   xmlns="http://www.w3.org/2000/svg"
   xmlns:svg="http://www.w3.org/2000/svg">
  <defs
     id="defs1" />
  <g
     id="layer1"
     transform="translate(-57.935465,-57.935444)">
    <g
       id="g154"
       style="stroke-width:1.272"
       transform="matrix(0.78616352,0,0,0.78616352,19.915314,22.281578)">
      <ellipse
         style="fill:#2b2b2b;fill-opacity:1;stroke:none;stroke-width:3.36551;stroke-linecap:round;stroke-linejoin:round;stroke-dasharray:none;stroke-opacity:1"
         id="path146"
         cx="319.29492"
         cy="316.28503"
         rx="270.93329"
         ry="270.93332" />
      <ellipse
         style="fill:#f5f5f5;fill-opacity:1;stroke:none;stroke-width:3.36551;stroke-linecap:round;stroke-linejoin:round;stroke-dasharray:none;stroke-opacity:1"
         id="ellipse146"
         cx="319.29492"
         cy="316.285"
         ry="253.45372"
         rx="253.45369" />
      <path
         style="-inkscape-font-specification:'HYPNUM76R Bold';fill:#2b2b2b;stroke-width:6.73103;stroke-linecap:round;stroke-linejoin:round"
         d="m 186.73613,393.23006 h 27.11349 q 7.9627,0 13.70793,5.74524 5.74524,5.74523 5.74524,13.70793 v 28.82698 q 0,7.9627 -5.74524,13.70793 -5.74523,5.74524 -13.70793,5.74524 h -27.11349 q -2.11666,0 -3.62857,-1.41111 -1.41111,-1.5119 -1.41111,-3.62857 v -57.65396 q 0,-2.11666 1.41111,-3.52777 1.51191,-1.51191 3.62857,-1.51191 z m 5.03968,10.07936 v 47.5746 h 22.07381 q 3.93095,0 6.65238,-2.72143 2.72143,-2.72143 2.72143,-6.65238 v -28.82698 q 0,-3.93095 -2.72143,-6.65238 -2.72143,-2.72143 -6.65238,-2.72143 z m 68.64047,-10.07936 q 0,0 12.39761,0 0,0 4.33413,0 3.32619,0 4.63651,3.02381 l 12.39762,28.82698 q 0.40317,0.80635 0.40317,2.01587 v 14.41349 14.41349 q 0,2.11667 -1.5119,3.62857 -1.41112,1.41111 -3.52778,1.41111 -2.11666,0 -3.62857,-1.41111 -1.41111,-1.5119 -1.41111,-3.62857 v -9.37381 h -31.44762 v 9.37381 q 0,2.11667 -1.51191,3.62857 -1.41111,1.41111 -3.52777,1.41111 -2.11666,0 -3.62857,-1.41111 -1.41111,-1.5119 -1.41111,-3.62857 v -14.41349 -14.41349 q 0,-1.20952 0.40317,-2.01587 l 12.39762,-28.82698 q 1.31032,-3.02381 4.63651,-3.02381 z m 3.32619,10.07936 -10.68413,24.79524 v 8.36587 h 31.44762 v -8.36587 l -10.68413,-24.79524 z m 45.55872,-10.07936 h 20.76349 20.76349 q 2.01587,0 3.42698,1.51191 1.51191,1.5119 1.51191,3.52777 0,2.01587 -1.51191,3.52778 -1.41111,1.5119 -3.42698,1.5119 h -15.72381 v 47.5746 h 15.72381 q 2.11666,0 3.52778,1.51191 1.5119,1.41111 1.5119,3.52777 0,2.11667 -1.5119,3.62857 -1.41112,1.41111 -3.52778,1.41111 h -20.76349 -20.76349 q -2.01587,0 -3.52777,-1.5119 -1.41112,-1.51191 -1.41112,-3.52778 0,-2.01587 1.41112,-3.52777 1.5119,-1.51191 3.52777,-1.51191 H 325.025 v -47.5746 h -15.72381 q -2.11666,0 -3.62857,-1.41111 -1.41111,-1.51191 -1.41111,-3.62857 0,-2.11666 1.41111,-3.52777 1.51191,-1.51191 3.62857,-1.51191 z m 75.69602,0 h 12.7 q 7.9627,0 13.60714,5.64444 5.74524,5.54365 5.84603,13.50635 v 0.30238 q 0,2.11666 -1.5119,3.62857 -1.41111,1.41111 -3.52778,1.41111 -2.11666,0 -3.62856,-1.41111 -1.41112,-1.51191 -1.41112,-3.62857 0,-3.93095 -2.72143,-6.65238 -2.72143,-2.72143 -6.65238,-2.72143 h -12.7 q -3.93094,0 -6.65238,2.72143 -2.72143,2.72143 -2.72143,6.65238 0,2.31825 0.70556,3.42698 0.80635,1.00794 3.12461,2.21747 3.42698,1.81429 12.90158,3.83016 11.1881,2.41904 15.62301,4.7373 3.93096,2.01587 6.55158,5.84602 2.62064,3.83017 2.62064,8.56747 v 0.20158 q 0,7.9627 -5.74524,13.70793 -5.74523,5.74524 -13.70793,5.74524 h -12.7 q -7.9627,0 -13.70793,-5.74524 -5.74524,-5.74523 -5.74524,-13.70793 0,-2.11666 1.41111,-3.52777 1.51191,-1.51191 3.62857,-1.51191 2.11666,0 3.52778,1.51191 1.5119,1.41111 1.5119,3.52777 0,3.93095 2.72143,6.65238 2.72144,2.72143 6.65238,2.72143 h 12.7 q 3.93095,0 6.65238,-2.72143 2.72143,-2.72143 2.72143,-6.65238 v -0.20158 q 0,-2.21747 -0.80635,-3.2254 -0.70555,-1.10873 -3.02381,-2.31826 -3.2254,-1.71349 -12.90159,-3.72936 -10.9865,-2.31825 -15.623,-4.83809 -3.93096,-2.11667 -6.55159,-5.94683 -2.62064,-3.83016 -2.62064,-8.56746 0,-7.9627 5.74524,-13.70793 5.74523,-5.74524 13.70793,-5.74524 z m 61.48412,0 h 12.29683 q 8.06349,0 13.80872,5.84604 5.84603,5.74523 5.84603,13.80872 v 28.42381 q 0,8.06349 -5.84603,13.90951 -5.74523,5.74524 -13.80872,5.74524 h -12.29683 q -8.06349,0 -13.90952,-5.74524 -5.74524,-5.84602 -5.74524,-13.90951 v -28.42381 q 0,-8.06349 5.74524,-13.80872 5.84603,-5.84604 13.90952,-5.84604 z m 0,10.07936 q -4.03174,0 -6.85396,2.82223 -2.72144,2.72143 -2.72144,6.75317 v 28.42381 q 0,4.03174 2.72144,6.85396 2.82222,2.72143 6.85396,2.72143 h 12.29683 q 4.03174,0 6.75317,-2.72143 2.82222,-2.82222 2.82222,-6.85396 v -28.42381 q 0,-4.03174 -2.82222,-6.75317 -2.72143,-2.82223 -6.75317,-2.82223 z"
         id="text101"
         aria-label="DAISO" />
      <path
         id="path80"
         style="fill:#2b2b2b;stroke-width:1.272"
         d="m 192.85589,171.6078 c -36.02745,0 -65.47299,29.44557 -65.47299,65.473 0,36.01991 29.43337,65.46351 65.45055,65.4758 a 11.288895,11.288895 0 0 0 0.0252,0.003 h 72.25167 a 11.288895,11.288895 0 0 0 0.15987,-0.006 c 32.1086,-0.0781 58.94113,-23.54702 64.31751,-54.18735 h 14.54737 V 352.22583 H 138.6769 a 11.288895,11.288895 0 0 0 -11.29126,11.29125 11.288895,11.288895 0 0 0 11.29126,11.29125 H 499.91844 A 11.288895,11.288895 0 0 0 511.2097,363.51708 11.288895,11.288895 0 0 0 499.91844,352.22583 H 366.70914 V 237.0836 A 11.290024,11.290024 0 0 0 355.41792,225.79235 H 329.58768 C 324.2001,195.10394 297.28811,171.6078 265.11031,171.6078 h -0.003 v 0.003 h -72.24887 v -0.003 z m 252.87806,0.003 c -36.02743,0 -65.4842,29.44555 -65.4842,65.47299 0,36.02744 29.45677,65.4758 65.4842,65.4758 36.02743,0 65.47579,-29.44836 65.47579,-65.4758 0,-36.02744 -29.44836,-65.47299 -65.47579,-65.47299 z m -252.89489,22.57128 a 11.288895,11.288895 0 0 0 0.0196,0.003 h 72.25168 a 11.288895,11.288895 0 0 0 0.0422,-0.003 c 23.80574,0.0226 42.84842,19.08753 42.84842,42.89891 0,23.79818 -19.02188,42.85525 -42.80916,42.8989 a 11.288895,11.288895 0 0 0 -0.0813,-0.003 h -72.25168 a 11.288895,11.288895 0 0 0 -0.0363,0.006 c -23.80969,-0.0179 -42.85683,-19.08751 -42.85683,-42.90171 0,-23.81985 19.05606,-42.88987 42.87366,-42.89891 z m 252.89489,0.003 c 23.82549,0 42.89331,19.07341 42.89331,42.8989 0,23.8255 -19.06782,42.8933 -42.89331,42.8933 -23.82549,0 -42.8989,-19.0678 -42.8989,-42.8933 0,-23.82549 19.07341,-42.8989 42.8989,-42.8989 z" />
      <circle
         style="fill:#e51515;stroke-width:3.3655;stroke-linecap:round;stroke-linejoin:round"
         id="circle144"
         cx="237.08328"
         cy="-192.85936"
         r="22.577776"
         transform="rotate(90)" />
    </g>
  </g>
</svg>
